<svg id="Layer_1" data-name="Layer 1" xmlns="http://www.w3.org/2000/svg" viewBox="0 0 550.29 676.05"><defs><style>.cls-1{fill:#ff9317;}.cls-2{fill:#fff;}</style></defs><path class="cls-1" d="M595.35,566.76c-2.55.76-5,.49-7.44.55-5.63.13-11.27.07-16.91.07H526.32c-6.28,0-12.55,0-18.83,0-7.23,0-14.46-.16-21.69-.15q-31.93.06-63.85.19a4.42,4.42,0,0,1-.63,0c-1.82-.29-3,.69-4,2.2-1.36,2.07-2.78,4.08-4.15,6.15q-11.5,17.46-23,34.94-12.39,18.9-24.75,37.83c-4.07,6.21-8.22,12.36-12.29,18.57Q343,682.49,333,697.9c-3.26,5-6.49,10-9.76,15-.73,1.12-1.53,2.17-2.44,3.45a11.73,11.73,0,0,1-1.5-1.46c-3.16-4.65-6.33-9.28-9.42-14-5.69-8.64-11.31-17.34-17-26q-12.4-18.9-24.85-37.77-15-22.82-30.11-45.6c-4.82-7.33-9.62-14.68-14.33-22.09a4.14,4.14,0,0,0-4-2.25c-2.87.11-5.74.18-8.62.17-7.55,0-15.1-.15-22.65-.15-12.13,0-24.25.11-36.38.15-8.62,0-17.23,0-25.85,0H106.36l-21.06,0q-17.72,0-35.43,0c-1.26,0-2.56.28-3.79-.5-.74-1.1-.5-2.41-.51-3.65q0-10.22,0-20.44V389.65q0-104.11,0-208.21,0-67.91,0-135.81c0-1.15,0-2.31.1-3.45a1.59,1.59,0,0,1,1.64-1.72,24.15,24.15,0,0,1,2.55-.09q79.33,0,158.66-.08a7.56,7.56,0,0,1,7,3.76c3.14,4.8,6.36,9.54,9.51,14.33,6.56,9.95,13.08,19.94,19.64,29.88Q258.33,109,272,129.61q13.47,20.41,26.89,40.87c5.19,7.89,10.35,15.81,15.55,23.69,1.48,2.26,3,4.47,4.59,6.66a23.57,23.57,0,0,0,1.87,2,12.18,12.18,0,0,0,1.44-1.5q3.93-5.9,7.8-11.82,6.3-9.6,12.59-19.19c4.18-6.4,8.33-12.82,12.52-19.22q9-13.85,18.11-27.66,10.25-15.67,20.47-31.37c2.83-4.33,5.72-8.62,8.55-13q5.64-8.6,11.24-17.24,6-9.19,11.92-18.42a6.15,6.15,0,0,1,5.63-3.17c12,.08,24.05,0,36.07,0H590.48a15.75,15.75,0,0,1,4.59.26c1,1.28.7,2.6.71,3.84q0,11.43,0,22.87V413.08q0,74.31,0,148.62A13.18,13.18,0,0,1,595.35,566.76ZM217.48,111.63c-.94.61-.64,1.63-.65,2.49,0,5.43,0,10.86,0,16.28l0,147.92c0,10.16,0,20.33,0,30.49a11.43,11.43,0,0,0,1.94,6.75c3.36,5.06,6.5,10.28,9.73,15.43q5.74,9.15,11.49,18.32,6.56,10.45,13.07,20.92,8.25,13.18,16.48,26.37c6,9.77,12,19.59,18.08,29.36,5.16,8.33,10.37,16.63,15.55,25,1.32,2.1,2.65,4.19,3.9,6.34a3.2,3.2,0,0,0,3.19,1.83c.31,0,.63,0,.95,0,6.39,0,12.77-.12,19.15,0a4.87,4.87,0,0,0,4.72-2.73c7.5-12.32,15.1-24.58,22.68-36.86q10.74-17.4,21.49-34.8l21.33-34.51q10.39-16.83,20.79-33.65c3.62-5.85,3.12-4.27,3.12-11.2q0-80.55-.05-161.09c0-9.7,0-19.4-.07-29.09,0-1-.1-2.07-.2-3.09,0-.42-.74-.73-1-.48a5.92,5.92,0,0,0-.9,1c-3,4.49-6,9-8.92,13.5-5.68,8.79-11.28,17.64-17,26.43q-11.93,18.41-23.93,36.76-9.75,15-19.47,30c-3.05,4.72-6,9.52-9.08,14.23-3.68,5.66-7.45,11.24-11.15,16.89-3.32,5.08-6.6,10.2-9.9,15.3-.54.83-1,1.79-2.16,2.18a19.9,19.9,0,0,1-1.44-1.67c-1.89-2.79-3.77-5.59-5.61-8.41q-10.14-15.55-20.25-31.12l-22.83-35.07c-5.14-7.92-10.25-15.88-15.42-23.79Q242,147.73,228.83,127.72q-4.72-7.2-9.52-14.33C218.84,112.68,218.51,111.71,217.48,111.63ZM101.05,275h0V390.66q0,31.51,0,63c0,1.16,0,2.31.08,3.46s.55,1.65,1.61,1.76a30.93,30.93,0,0,0,3.19.13l83.94,0c.85,0,1.71,0,2.55-.06,1.84-.14,2.24-.55,2.33-2.5.11-2.54.21-5.08.2-7.61,0-9.93-.12-19.85-.16-29.78,0-7.39,0-14.77,0-22.16q0-17,0-33.94,0-34.47,0-68.93,0-30.3,0-60.61,0-68.76,0-137.51c0-5.18,0-5.2-4.72-5.22-8.94,0-17.87,0-26.81,0-12.23,0-24.47-.14-36.7-.15-7.13,0-14.25.1-21.38.17a24.24,24.24,0,0,0-2.55.16,1.56,1.56,0,0,0-1.42,1.59c-.08,1.73-.1,3.46-.1,5.19Zm345.38-.05h0q0,29.44,0,58.9,0,60.27-.07,120.56c0,.58,0,1.16,0,1.73.09,2.48.39,2.83,2.57,2.94.74,0,1.49,0,2.23,0h83c1.17,0,2.34,0,3.51-.07,1.39-.1,1.85-.61,2-2.16.09-1,.08-2.08.08-3.11q0-15.25,0-30.49l0-120.56q0-88.17,0-176.34,0-15.07,0-30.14c0-.92,0-1.85,0-2.77-.13-2-.54-2.43-2.29-2.59h-.32c-6-.11-11.91-.29-17.87-.31s-11.91.14-17.86.16q-25.22,0-50.44,0c-.53,0-1.06,0-1.59,0-2.46.12-2.81.44-2.86,3-.06,3.23-.06,6.47-.06,9.7ZM133.29,508.67a7.2,7.2,0,0,1,.48,3.63c0,6.12-.08,12.23-.12,18.35,0,1.5,0,3,.06,4.5.11,1.91.6,2.5,2.34,2.56,2,.06,4-.09,6.06-.13,4.77-.07,4.71.09,4.7-5.22q0-22.15,0-44.31c0-.69,0-1.38,0-2.07-.11-1.79-.49-2.29-2.11-2.33-3-.08-6,0-8.93,0a2.83,2.83,0,0,0-2.57,1.69c-1.86,3.23-3.78,6.41-5.66,9.63-1.14,1.94-2.22,3.93-3.39,5.85a10,10,0,0,1-1.41,1.48,42.5,42.5,0,0,1-2.72-4.54c-2.16-3.84-4.39-7.63-6.47-11.52a4.29,4.29,0,0,0-4.42-2.62c-2.12.13-4.25,0-6.38,0-3.37.06-3.56.25-3.56,4q0,22.84,0,45.69a19.52,19.52,0,0,0,.12,2.42c.13,1.08.64,1.7,1.68,1.71,3.29,0,6.58-.06,9.87-.12.18,0,.36-.23.65-.42a9.42,9.42,0,0,0,.54-4.29c0-6.69,0-13.38,0-20.07a6.88,6.88,0,0,1,.38-3.44c.36.26.68.38.83.62.84,1.33,1.64,2.69,2.45,4,1.92,3.19,3.82,6.38,5.76,9.55.4.64.77,1.43,1.84,1.29a11.88,11.88,0,0,0,2.42-3.44c2.06-3.5,4.08-7,6.14-10.53A19.94,19.94,0,0,1,133.29,508.67Zm365.43,1.85h0q0,11.09,0,22.16c0,4.83.17,5,4.68,5.07s8.94.13,13.4,0a42.3,42.3,0,0,0,8.53-1.09,23.2,23.2,0,0,0,16.83-14.46,31.81,31.81,0,0,0,2.17-13.53c-.29-6.68-2.33-12.63-6.77-17.44a24.32,24.32,0,0,0-12-6.77,34.34,34.34,0,0,0-9.18-1.1c-4.78.05-9.56.22-14.34.41-3.07.12-3.24.35-3.31,3.61,0,1.15,0,2.31,0,3.46ZM207.55,524.2c-.06-1.29-.14-2.42-.15-3.55,0-4.73-.06-9.47-.09-14.2,0-.92,0-1.85-.13-2.76-.15-1.28-.65-1.86-1.89-1.89-3.08-.07-6.17-.05-9.25,0-1.08,0-1.54.58-1.69,1.68a14.3,14.3,0,0,0-.13,2.07c0,9.35,0,18.7,0,28,0,3.54.36,3.88,3.75,3.91,5.53,0,11.06,0,16.58,0a24.49,24.49,0,0,0,9.06-1.78,22.9,22.9,0,0,0,13.31-12.64,32.29,32.29,0,0,0,1.93-19.91,25.69,25.69,0,0,0-2.67-7.38,22.62,22.62,0,0,0-11.12-9.94,33.31,33.31,0,0,0-13.1-2.55c-4.68,0-9.36.2-14,.33a15.21,15.21,0,0,0-1.91.15c-1.27.18-1.73.58-1.81,2-.14,2.53-.19,5.06-.2,7.6a7.21,7.21,0,0,0,.45,1.83c1.18.9,2.38.68,3.53.69,4.57,0,9.15,0,13.72.08a25.54,25.54,0,0,1,5.36.68c4.76,1.13,7.41,4.6,8.61,9.58a19.25,19.25,0,0,1-.22,9.24c-1.15,4.57-3.67,7.73-8.06,8.9A24.26,24.26,0,0,1,207.55,524.2Zm202.57-40.1a11.87,11.87,0,0,0,.6,1.89q2.44,4.47,5,8.88c2.57,4.51,5.15,9,7.77,13.5a3.09,3.09,0,0,1,0,3.5c-2.31,3.88-4.53,7.81-6.79,11.72s-4.55,7.8-6.79,11.72a9.25,9.25,0,0,0-.55,1.76,14.58,14.58,0,0,0,2.31.44c3,0,6-.07,8.93.06a4.16,4.16,0,0,0,4.35-2.68c1.75-3.56,3.75-7,5.67-10.44a23.3,23.3,0,0,1,1.37-2,10.32,10.32,0,0,1,2.35,3.43c1.87,3.36,3.7,6.74,5.52,10.13a2.54,2.54,0,0,0,2.26,1.64c3.82,0,7.65-.06,11.47-.16.45,0,.89-.4,1.49-.7-1.35-3.41-3.38-6.09-5-9s-3.34-5.89-5-8.83-3.65-5.66-5.05-9c.58-1.08,1.13-2.19,1.75-3.24q6.19-10.5,12.4-21a6.31,6.31,0,0,0,.38-1.7,10.18,10.18,0,0,0-1.7-.37c-3.4-.05-6.8,0-10.21-.11-1.71-.05-2.69.78-3.51,2.37-1.91,3.73-4,7.36-6,11-.16.29-.34.57-.54.89a5.88,5.88,0,0,1-2.1-2.77c-1.7-3.2-3.39-6.4-5.05-9.63a2.92,2.92,0,0,0-2.83-1.82c-3.62,0-7.23,0-10.85.07A8.51,8.51,0,0,0,410.12,484.1ZM309.39,536.87c.25-1.67-.41-2.92-.83-4.19q-6-18.63-12.11-37.22c-1-3.15-2.15-6.27-3.11-9.45-.51-1.68-1.41-2.43-3-2.41-3.4,0-6.81.06-10.21,0-1.56,0-2.3.82-2.76,2.3-.79,2.51-1.68,5-2.46,7.5-1.9,6.12-3.73,12.27-5.66,18.38-2.35,7.42-4.78,14.81-7.16,22.22a12.63,12.63,0,0,0-.51,2,1.12,1.12,0,0,0,.79,1.31,5.22,5.22,0,0,0,1.56.27c2.87,0,5.74,0,8.61,0,1.75,0,2.69-.73,3.2-2.6,1.21-4.43,2.56-8.8,3.89-13.19Q282,513.9,284.43,506a5.21,5.21,0,0,1,1.47-2.84c.72,2.38,1.35,4.44,2,6.5q2.53,8.38,5.07,16.78c.9,3,1.86,5.89,2.74,8.86a2.88,2.88,0,0,0,3.06,2.42c3.19-.11,6.38-.23,9.56-.38C308.61,537.35,308.89,537.11,309.39,536.87Zm37.19-20c.7-2.1.32-4.3.32-6.46,0-5.1-.13-5.21-4.83-5.23-4.15,0-8.29,0-12.44,0-.92,0-1.93.21-2.8-.82-.26-2.46-.66-5.05.4-7.81,1.18-.08,2.33-.21,3.48-.22,4.36-.05,8.71-.05,13.07-.09a23.88,23.88,0,0,0,3.17-.21,1.84,1.84,0,0,0,1.81-2c.13-1.95.16-3.92.15-5.87,0-4.38-.14-4.54-4.08-4.56q-13.69-.06-27.41,0c-3.62,0-3.72.12-3.73,4.13q0,23-.05,46a9.06,9.06,0,0,0,0,1.38c.11.66.29,1.3.42,1.87a28.16,28.16,0,0,0,11.82,0c.76-1.06.63-2.36.64-3.6.05-3.92,0-7.84.1-11.76,0-1.12-.2-2.33.65-3.28,1.09-.65,2.28-.45,3.43-.47,4-.09,8.07-.12,12.11-.21C344.09,517.7,345.4,517.83,346.58,516.92Zm20.76,6.82a8.88,8.88,0,0,1-.55-4.34q0-15.06,0-30.12c0-1,0-2.08-.06-3.11-.15-2-.59-2.5-2.34-2.53-3-.06-5.95,0-8.93.07a5.19,5.19,0,0,0-1.16.3c-1,1.37-.79,2.93-.79,4.39q0,22.17,0,44.32a25.38,25.38,0,0,0,.14,2.76c.17,1.31.66,1.81,1.85,2a13.47,13.47,0,0,0,1.9.12q11.81,0,23.61.07c1.27,0,2.55-.07,3.82-.16,1.65-.11,2.18-.53,2.22-2.25.08-3.11,0-6.22-.07-9.33a4.19,4.19,0,0,0-.45-1.25c-2.15-.75-4.29-.5-6.39-.53s-4.26.07-6.38,0S369.51,524.47,367.34,523.74ZM154.13,502.05c-.07,1.62-.18,3-.19,4.35q-.1,12.11-.16,24.23c0,1.72.11,3.45.2,5.18a1.55,1.55,0,0,0,1.36,1.64,29.34,29.34,0,0,0,3.5.3q11,0,22,0c2,0,4-.12,6.06-.25,1.28-.08,1.89-.59,1.92-1.83.07-2.76,0-5.53,0-8.29a1.8,1.8,0,0,0-1.65-1.81,25,25,0,0,0-2.87-.18c-4.57,0-9.14,0-13.71,0-1,0-2.14.23-3.18-.67a17,17,0,0,1-.25-6.71,1.39,1.39,0,0,1,1.28-1.32c.84-.1,1.69-.14,2.54-.16,3.51-.07,7-.11,10.53-.17a12.3,12.3,0,0,0,4.16-.55,6.94,6.94,0,0,0,.47-1.64c0-2.54.1-5.08,0-7.61-.07-1.74-.57-2.2-2.15-2.4a24.18,24.18,0,0,0-2.55-.12c-3.4,0-6.81,0-10.21,0-.85,0-1.7,0-2.55-.06a1.58,1.58,0,0,1-1.56-1,2.17,2.17,0,0,0-2.38-1.32c-2.87,0-5.74,0-8.61,0A14,14,0,0,0,154.13,502.05ZM404.31,484a4.72,4.72,0,0,0-1.16-.32c-3,0-5.95-.08-8.93,0-1.62,0-1.94.48-2,2.37,0,.69,0,1.38,0,2.08q0,22.33,0,44.68c0,.81,0,1.62,0,2.42.1,1.76.46,2.3,2.1,2.4a64.91,64.91,0,0,0,6.69,0c3.66-.17,4.19.45,4.18-4.81,0-9.24,0-18.48,0-27.71q0-8.49-.12-17C405,486.74,405.17,485.31,404.31,484Zm-158.62-.18c-1,1.64-.81,3.18-.81,4.66q0,22.31,0,44.61c0,.58,0,1.16,0,1.73.15,2.21.49,2.64,2.47,2.71s4.24,0,6.37,0c4,0,4-.07,4-4.52q0-22.49,0-45c0-.8,0-1.61-.07-2.41-.12-1.36-.57-1.94-1.77-2A65,65,0,0,0,245.69,483.82Zm233.77-.05c-1.1,1.73-.89,3.28-.89,4.75q-.06,22.16,0,44.32a23.08,23.08,0,0,0,.12,2.76c.16,1.27.68,1.86,1.9,1.88,3.08,0,6.16,0,9.25-.06,1.07,0,1.55-.58,1.66-1.71s.11-2.07.11-3.11q0-22.32,0-44.66c0-.81,0-1.62-.07-2.42-.11-1.18-.54-1.75-1.57-1.8A81.61,81.61,0,0,0,479.46,483.77ZM154.1,495.17c1.3,1,2.5.74,3.65.74q13.06,0,26.13,0c.74,0,1.49,0,2.23-.06,1.4-.11,1.92-.59,2-2.12.1-2.19.09-4.38.06-6.57,0-3.24-.29-3.54-3.32-3.55q-13.86,0-27.73,0c-.93,0-1.86.18-3,.29A34.71,34.71,0,0,0,154.1,495.17ZM457.19,530c0,4.46,3.09,8,7.14,8.08s7.94-3.82,7.93-8.16c0-4.16-3.84-8.14-7.77-7.95A8,8,0,0,0,457.19,530Z" transform="translate(-45.54 -40.29)"/><path class="cls-2" d="M217.48,111.63c1,.08,1.36,1.05,1.83,1.76q4.78,7.14,9.52,14.33,13.14,20,26.24,40.08c5.17,7.91,10.28,15.87,15.42,23.79l22.83,35.07q10.13,15.56,20.25,31.12c1.84,2.82,3.72,5.62,5.61,8.41a19.9,19.9,0,0,0,1.44,1.67c1.18-.39,1.62-1.35,2.16-2.18,3.3-5.1,6.58-10.22,9.9-15.3,3.7-5.65,7.47-11.23,11.15-16.89,3.07-4.71,6-9.51,9.08-14.23q9.7-15,19.47-30,12-18.37,23.93-36.76c5.68-8.79,11.28-17.64,17-26.43,2.92-4.54,5.93-9,8.92-13.5a5.92,5.92,0,0,1,.9-1c.27-.25,1,.06,1,.48.1,1,.19,2,.2,3.09,0,9.69.07,19.39.07,29.09q0,80.55.05,161.09c0,6.93.5,5.35-3.12,11.2q-10.41,16.82-20.79,33.65l-21.33,34.51q-10.76,17.4-21.49,34.8C350.11,431.77,342.51,444,335,456.35a4.87,4.87,0,0,1-4.72,2.73c-6.38-.12-12.76,0-19.15,0-.32,0-.64,0-.95,0a3.2,3.2,0,0,1-3.19-1.83c-1.25-2.15-2.58-4.24-3.9-6.34-5.18-8.32-10.39-16.62-15.55-25-6-9.77-12-19.59-18.08-29.36q-8.21-13.22-16.48-26.37-6.53-10.46-13.07-20.92-5.73-9.17-11.49-18.32c-3.23-5.15-6.37-10.37-9.73-15.43a11.43,11.43,0,0,1-1.94-6.75c.05-10.16,0-20.33,0-30.49l0-147.92c0-5.42,0-10.85,0-16.28C216.84,113.26,216.54,112.24,217.48,111.63Z" transform="translate(-45.54 -40.29)"/><path class="cls-2" d="M101.05,275V97.62c0-1.73,0-3.46.1-5.19a1.56,1.56,0,0,1,1.42-1.59,24.24,24.24,0,0,1,2.55-.16c7.13-.07,14.25-.17,21.38-.17,12.23,0,24.47.11,36.7.15,8.94,0,17.87,0,26.81,0,4.71,0,4.71,0,4.72,5.22q0,68.76,0,137.51,0,30.32,0,60.61,0,34.47,0,68.93,0,17,0,33.94c0,7.39,0,14.77,0,22.16,0,9.93.13,19.85.16,29.78,0,2.53-.09,5.07-.2,7.61-.09,1.95-.49,2.36-2.33,2.5-.84.07-1.7.06-2.55.06l-83.94,0a30.93,30.93,0,0,1-3.19-.13c-1.06-.11-1.53-.62-1.61-1.76s-.08-2.3-.08-3.46q0-31.51,0-63V275Z" transform="translate(-45.54 -40.29)"/><path class="cls-2" d="M446.43,274.92V103.43c0-3.23,0-6.47.06-9.7.05-2.57.4-2.89,2.86-3,.53,0,1.06,0,1.59,0q25.23,0,50.44,0c5.95,0,11.91-.19,17.86-.16s11.92.2,17.87.31h.32c1.75.16,2.16.59,2.29,2.59.06.92,0,1.85,0,2.77q0,15.07,0,30.14,0,88.17,0,176.34l0,120.56q0,15.24,0,30.49c0,1,0,2.08-.08,3.11-.13,1.55-.59,2.06-2,2.16-1.17.09-2.34.07-3.51.07h-83c-.74,0-1.49,0-2.23,0-2.18-.11-2.48-.46-2.57-2.94,0-.57,0-1.15,0-1.73q0-60.28.07-120.56,0-29.44,0-58.9Z" transform="translate(-45.54 -40.29)"/><path class="cls-2" d="M133.29,508.67a19.94,19.94,0,0,0-1.5,1.94c-2.06,3.5-4.08,7-6.14,10.53a11.88,11.88,0,0,1-2.42,3.44c-1.07.14-1.44-.65-1.84-1.29-1.94-3.17-3.84-6.36-5.76-9.55-.81-1.35-1.61-2.71-2.45-4-.15-.24-.47-.36-.83-.62a6.88,6.88,0,0,0-.38,3.44c0,6.69,0,13.38,0,20.07a9.42,9.42,0,0,1-.54,4.29c-.29.19-.47.41-.65.42-3.29.06-6.58.15-9.87.12-1,0-1.55-.63-1.68-1.71a19.52,19.52,0,0,1-.12-2.42q0-22.85,0-45.69c0-3.76.19-4,3.56-4,2.13,0,4.26.11,6.38,0a4.29,4.29,0,0,1,4.42,2.62c2.08,3.89,4.31,7.68,6.47,11.52a42.5,42.5,0,0,0,2.72,4.54,10,10,0,0,0,1.41-1.48c1.17-1.92,2.25-3.91,3.39-5.85,1.88-3.22,3.8-6.4,5.66-9.63a2.83,2.83,0,0,1,2.57-1.69c3,0,6,0,8.93,0,1.62,0,2,.54,2.11,2.33,0,.69,0,1.38,0,2.07q0,22.15,0,44.31c0,5.31.07,5.15-4.7,5.22-2,0-4,.19-6.06.13-1.74-.06-2.23-.65-2.34-2.56-.08-1.5-.07-3-.06-4.5,0-6.12.1-12.23.12-18.35A7.2,7.2,0,0,0,133.29,508.67Z" transform="translate(-45.54 -40.29)"/><path class="cls-2" d="M498.72,510.52V490.79c0-1.15,0-2.31,0-3.46.07-3.26.24-3.49,3.31-3.61,4.78-.19,9.56-.36,14.34-.41a34.34,34.34,0,0,1,9.18,1.1,24.32,24.32,0,0,1,12,6.77c4.44,4.81,6.48,10.76,6.77,17.44a31.81,31.81,0,0,1-2.17,13.53,23.2,23.2,0,0,1-16.83,14.46,42.3,42.3,0,0,1-8.53,1.09c-4.46.18-8.93.1-13.4,0s-4.67-.24-4.68-5.07q0-11.07,0-22.16Zm13.42,14.06a34.18,34.18,0,0,0,8.57,0,10.26,10.26,0,0,0,8.06-5.5c2.81-5,2.71-10.33.77-15.62a10.54,10.54,0,0,0-7.2-6.76,18.81,18.81,0,0,0-8.53-.48,8.65,8.65,0,0,0-1.65.58c-.44,2.73-.68,18.46-.39,25.07C511.8,522.69,512,523.46,512.14,524.58Z" transform="translate(-45.54 -40.29)"/><path class="cls-2" d="M207.55,524.2a24.26,24.26,0,0,0,9.86.18c4.39-1.17,6.91-4.33,8.06-8.9a19.25,19.25,0,0,0,.22-9.24c-1.2-5-3.85-8.45-8.61-9.58a25.54,25.54,0,0,0-5.36-.68c-4.57-.11-9.15,0-13.72-.08-1.15,0-2.35.21-3.53-.69a7.21,7.21,0,0,1-.45-1.83c0-2.54.06-5.07.2-7.6.08-1.38.54-1.78,1.81-2a15.21,15.21,0,0,1,1.91-.15c4.67-.13,9.35-.34,14-.33a33.31,33.31,0,0,1,13.1,2.55,22.62,22.62,0,0,1,11.12,9.94,25.69,25.69,0,0,1,2.67,7.38,32.29,32.29,0,0,1-1.93,19.91,22.9,22.9,0,0,1-13.31,12.64,24.49,24.49,0,0,1-9.06,1.78c-5.52,0-11.05,0-16.58,0-3.39,0-3.73-.37-3.75-3.91,0-9.34,0-18.69,0-28a14.3,14.3,0,0,1,.13-2.07c.15-1.1.61-1.65,1.69-1.68,3.08-.06,6.17-.08,9.25,0,1.24,0,1.74.61,1.89,1.89.1.91.12,1.84.13,2.76,0,4.73.05,9.47.09,14.2C207.41,521.78,207.49,522.91,207.55,524.2Z" transform="translate(-45.54 -40.29)"/><path class="cls-2" d="M410.12,484.1a8.51,8.51,0,0,1,1.63-.4c3.62,0,7.23,0,10.85-.07a2.92,2.92,0,0,1,2.83,1.82c1.66,3.23,3.35,6.43,5.05,9.63a5.88,5.88,0,0,0,2.1,2.77c.2-.32.38-.6.54-.89,2-3.67,4.08-7.3,6-11,.82-1.59,1.8-2.42,3.51-2.37,3.41.09,6.81.06,10.21.11a10.18,10.18,0,0,1,1.7.37,6.31,6.31,0,0,1-.38,1.7q-6.18,10.5-12.4,21c-.62,1-1.17,2.16-1.75,3.24,1.4,3.3,3.37,6,5.05,9s3.43,5.85,5,8.83,3.62,5.64,5,9c-.6.3-1,.69-1.49.7-3.82.1-7.65.13-11.47.16a2.54,2.54,0,0,1-2.26-1.64c-1.82-3.39-3.65-6.77-5.52-10.13a10.32,10.32,0,0,0-2.35-3.43,23.3,23.3,0,0,0-1.37,2c-1.92,3.46-3.92,6.88-5.67,10.44a4.16,4.16,0,0,1-4.35,2.68c-3-.13-5.95,0-8.93-.06a14.58,14.58,0,0,1-2.31-.44,9.25,9.25,0,0,1,.55-1.76c2.24-3.92,4.52-7.82,6.79-11.72s4.48-7.84,6.79-11.72a3.09,3.09,0,0,0,0-3.5c-2.62-4.47-5.2-9-7.77-13.5q-2.52-4.41-5-8.88A11.87,11.87,0,0,1,410.12,484.1Z" transform="translate(-45.54 -40.29)"/><path class="cls-2" d="M309.39,536.87c-.5.24-.78.48-1.08.49-3.18.15-6.37.27-9.56.38a2.88,2.88,0,0,1-3.06-2.42c-.88-3-1.84-5.9-2.74-8.86q-2.55-8.38-5.07-16.78c-.63-2.06-1.26-4.12-2-6.5a5.21,5.21,0,0,0-1.47,2.84q-2.44,7.88-4.83,15.77c-1.33,4.39-2.68,8.76-3.89,13.19-.51,1.87-1.45,2.64-3.2,2.6-2.87-.06-5.74,0-8.61,0a5.22,5.22,0,0,1-1.56-.27,1.12,1.12,0,0,1-.79-1.31,12.63,12.63,0,0,1,.51-2c2.38-7.41,4.81-14.8,7.16-22.22,1.93-6.11,3.76-12.26,5.66-18.38.78-2.51,1.67-5,2.46-7.5.46-1.48,1.2-2.33,2.76-2.3,3.4.08,6.81.07,10.21,0,1.62,0,2.52.73,3,2.41,1,3.18,2.08,6.3,3.11,9.45q6.07,18.6,12.11,37.22C309,534,309.64,535.2,309.39,536.87Z" transform="translate(-45.54 -40.29)"/><path class="cls-2" d="M346.58,516.92c-1.18.91-2.49.78-3.74.8-4,.09-8.08.12-12.11.21-1.15,0-2.34-.18-3.43.47-.85,1-.64,2.16-.65,3.28-.06,3.92,0,7.84-.1,11.76,0,1.24.12,2.54-.64,3.6a28.16,28.16,0,0,1-11.82,0c-.13-.57-.31-1.21-.42-1.87a9.06,9.06,0,0,1,0-1.38q0-23,.05-46c0-4,.11-4.12,3.73-4.13q13.71,0,27.41,0c3.94,0,4.05.18,4.08,4.56,0,1.95,0,3.92-.15,5.87a1.84,1.84,0,0,1-1.81,2,23.88,23.88,0,0,1-3.17.21c-4.36,0-8.71,0-13.07.09-1.15,0-2.3.14-3.48.22-1.06,2.76-.66,5.35-.4,7.81.87,1,1.88.82,2.8.82,4.15,0,8.29,0,12.44,0,4.7,0,4.83.13,4.83,5.23C346.9,512.62,347.28,514.82,346.58,516.92Z" transform="translate(-45.54 -40.29)"/><path class="cls-2" d="M367.34,523.74c2.17.73,4.31.35,6.42.41s4.25,0,6.38,0,4.24-.22,6.39.53a4.19,4.19,0,0,1,.45,1.25c.07,3.11.15,6.22.07,9.33,0,1.72-.57,2.14-2.22,2.25-1.27.09-2.55.16-3.82.16q-11.81,0-23.61-.07a13.47,13.47,0,0,1-1.9-.12c-1.19-.17-1.68-.67-1.85-2a25.38,25.38,0,0,1-.14-2.76q0-22.15,0-44.32c0-1.46-.24-3,.79-4.39a5.19,5.19,0,0,1,1.16-.3c3,0,6-.13,8.93-.07,1.75,0,2.19.57,2.34,2.53.08,1,.06,2.07.06,3.11q0,15.06,0,30.12A8.88,8.88,0,0,0,367.34,523.74Z" transform="translate(-45.54 -40.29)"/><path class="cls-2" d="M154.13,502.05a14,14,0,0,1,2-.39c2.87,0,5.74,0,8.61,0a2.17,2.17,0,0,1,2.38,1.32,1.58,1.58,0,0,0,1.56,1c.85.05,1.7.05,2.55.06,3.4,0,6.81,0,10.21,0a24.18,24.18,0,0,1,2.55.12c1.58.2,2.08.66,2.15,2.4.09,2.53,0,5.07,0,7.61a6.94,6.94,0,0,1-.47,1.64,12.3,12.3,0,0,1-4.16.55c-3.51.06-7,.1-10.53.17-.85,0-1.7.06-2.54.16a1.39,1.39,0,0,0-1.28,1.32,17,17,0,0,0,.25,6.71c1,.9,2.14.66,3.18.67,4.57,0,9.14,0,13.71,0a25,25,0,0,1,2.87.18,1.8,1.8,0,0,1,1.65,1.81c.08,2.76.12,5.53,0,8.29,0,1.24-.64,1.75-1.92,1.83-2,.13-4,.24-6.06.25q-11,0-22,0a29.34,29.34,0,0,1-3.5-.3,1.55,1.55,0,0,1-1.36-1.64c-.09-1.73-.21-3.46-.2-5.18q0-12.12.16-24.23C154,505,154.06,503.67,154.13,502.05Z" transform="translate(-45.54 -40.29)"/><path class="cls-2" d="M404.31,484c.86,1.31.7,2.74.71,4.1q.11,8.47.12,17c0,9.23-.05,18.47,0,27.71,0,5.26-.52,4.64-4.18,4.81a64.91,64.91,0,0,1-6.69,0c-1.64-.1-2-.64-2.1-2.4-.05-.8,0-1.61,0-2.42q0-22.33,0-44.68c0-.7,0-1.39,0-2.08.1-1.89.42-2.34,2-2.37,3-.06,6,0,8.93,0A4.72,4.72,0,0,1,404.31,484Z" transform="translate(-45.54 -40.29)"/><path class="cls-2" d="M245.69,483.82a65,65,0,0,1,10.24-.15c1.2,0,1.65.62,1.77,2,.07.8.07,1.61.07,2.41q0,22.49,0,45c0,4.45-.06,4.47-4,4.52-2.13,0-4.25.06-6.37,0s-2.32-.5-2.47-2.71c0-.57,0-1.15,0-1.73q0-22.31,0-44.61C244.88,487,244.66,485.46,245.69,483.82Z" transform="translate(-45.54 -40.29)"/><path class="cls-2" d="M479.46,483.77a81.61,81.61,0,0,1,10.49,0c1,0,1.46.62,1.57,1.8.07.8.07,1.61.07,2.42q0,22.33,0,44.66c0,1,0,2.08-.11,3.11s-.59,1.68-1.66,1.71c-3.09.08-6.17.11-9.25.06-1.22,0-1.74-.61-1.9-1.88a23.08,23.08,0,0,1-.12-2.76q0-22.15,0-44.32C478.57,487.05,478.36,485.5,479.46,483.77Z" transform="translate(-45.54 -40.29)"/><path class="cls-2" d="M154.1,495.17a34.71,34.71,0,0,1,.05-11.23c1.1-.11,2-.29,3-.29q13.88-.06,27.73,0c3,0,3.27.31,3.32,3.55,0,2.19,0,4.38-.06,6.57-.07,1.53-.59,2-2,2.12-.74.07-1.49.06-2.23.06q-13.06,0-26.13,0C156.6,495.91,155.4,496.14,154.1,495.17Z" transform="translate(-45.54 -40.29)"/><path class="cls-2" d="M457.19,530a8,8,0,0,1,7.3-8c3.93-.19,7.76,3.79,7.77,7.95,0,4.34-3.81,8.27-7.93,8.16S457.18,534.45,457.19,530Z" transform="translate(-45.54 -40.29)"/><path class="cls-1" d="M512.14,524.58c-.16-1.12-.34-1.89-.37-2.67-.29-6.61,0-22.34.39-25.07a8.65,8.65,0,0,1,1.65-.58,18.81,18.81,0,0,1,8.53.48,10.54,10.54,0,0,1,7.2,6.76c1.94,5.29,2,10.57-.77,15.62a10.26,10.26,0,0,1-8.06,5.5A34.18,34.18,0,0,1,512.14,524.58Z" transform="translate(-45.54 -40.29)"/></svg>